PathFileType	4	(X/Y/Z)	OpenSim_Sub10_EMGBaseline_Magnet.trc
DataRate	CameraRate	NumFrames	NumMarkers	Units	OrigDataRate	OrigDataStartFrame	OrigNumFrames
100	100	26	8	m	100	4101	8201
Frame#	Time	torso_imu_offset_imu	pelvis_imu_offset_imu	tibia_r_imu_offset_imu	femur_r_imu_offset_imu	tibia_l_imu_offset_imu	femur_l_imu_offset_imu	toes_r_imu_offset_imu	toes_l_imu_offset_imu
				X1	Y1	Z1	X2	Y2	Z2	X3	Y3	Z3	X4	Y4	Z4	X5	Y5	Z5	X6	Y6	Z6	X7	Y7	Z7	X8		Y8	Z8	

4101	41	-0.94360400	-0.06152300	0.12646500	-0.65576200	0.07836900	-0.68237300	-0.65185500	-0.64111300	-0.07446300	-0.73339800	-0.40478500	0.08349600	-0.26464800	0.76904300	0.13183600	-0.80517600	0.03027300	0.25512700	-0.62011700	-0.27172900	-0.35156200	-0.82690400	-0.00122100	0.04028300
4102	41.01000000	-0.94189500	-0.05297900	0.13256800	-0.65991200	0.07617200	-0.68701200	-0.64550800	-0.64331100	-0.08544900	-0.73315400	-0.41113300	0.07006800	-0.30249000	0.76025400	0.13281200	-0.80468800	0.01293900	0.25756800	-0.61987300	-0.27563500	-0.35351600	-0.83129900	-0.00756800	-0.01367200
4103	41.02000000	-0.93969700	-0.05297900	0.13501000	-0.65771500	0.07202100	-0.68676800	-0.64331100	-0.64331100	-0.08105500	-0.72680700	-0.41723600	0.07495100	-0.33569300	0.74926800	0.13159200	-0.80883800	0.00415000	0.25537100	-0.61767600	-0.27978500	-0.36181600	-0.82202100	-0.01611300	-0.05175800
4104	41.03000000	-0.93750000	-0.05712900	0.13940400	-0.65527300	0.06982400	-0.68676800	-0.64526400	-0.64526400	-0.08544900	-0.72680700	-0.41918900	0.07714800	-0.36865200	0.73144500	0.12841800	-0.80639600	-0.00463900	0.25097700	-0.61157200	-0.27954100	-0.36792000	-0.81518600	-0.01562500	-0.09228500
4105	41.04000000	-0.94189500	-0.05297900	0.13696300	-0.65722700	0.06152300	-0.68408200	-0.64086900	-0.65380900	-0.08740200	-0.71606400	-0.42749000	0.07763700	-0.40380900	0.70727500	0.13208000	-0.80835000	-0.01098600	0.25097700	-0.60717800	-0.28344700	-0.36987300	-0.81054700	-0.02197300	-0.12377900
4106	41.05000000	-0.94189500	-0.05297900	0.14379900	-0.65527300	0.06372100	-0.69116200	-0.64086900	-0.65380900	-0.08740200	-0.71997100	-0.43383800	0.07324200	-0.44116200	0.68530300	0.13818400	-0.80371100	-0.01538100	0.25122100	-0.60498000	-0.28759800	-0.37622100	-0.80371100	-0.02172900	-0.16406200
4107	41.06000000	-0.94384800	-0.05297900	0.14135700	-0.65307600	0.06372100	-0.69360400	-0.63452100	-0.65380900	-0.08740200	-0.71362300	-0.43774400	0.06665000	-0.48291000	0.65869100	0.14233400	-0.81225600	-0.02197300	0.25341800	-0.60083000	-0.29150400	-0.38867200	-0.79443400	-0.03027300	-0.20898400
4108	41.07000000	-0.93994100	-0.04663100	0.15234400	-0.65307600	0.06591800	-0.69360400	-0.63623000	-0.66210900	-0.09375000	-0.70922900	-0.44409200	0.07373000	-0.51977500	0.61694300	0.14941400	-0.80566400	-0.01977500	0.25341800	-0.60473600	-0.29760700	-0.39257800	-0.79223600	-0.03222700	-0.23608400
4109	41.08000000	-0.93969700	-0.04882800	0.15014600	-0.65283200	0.05957000	-0.69580100	-0.63012700	-0.66210900	-0.09594700	-0.71557600	-0.44604500	0.07153300	-0.55444300	0.58593800	0.15795900	-0.80566400	-0.02636700	0.24902300	-0.60473600	-0.30175800	-0.39477500	-0.77636700	-0.04077100	-0.28540000
4110	41.09000000	-0.94409200	-0.04663100	0.14990200	-0.65087900	0.06152300	-0.69335900	-0.62573200	-0.66626000	-0.10034200	-0.70483400	-0.45019500	0.06933600	-0.59570300	0.54418900	0.16503900	-0.80761700	-0.02856400	0.24902300	-0.60009800	-0.31176800	-0.39868200	-0.76025400	-0.04907200	-0.31225600
4111	41.10000000	-0.93969700	-0.05078100	0.15673800	-0.65063500	0.05737300	-0.69335900	-0.62768600	-0.66821300	-0.10253900	-0.69604500	-0.46264600	0.07446300	-0.62597700	0.50903300	0.16723600	-0.81665000	-0.02197300	0.24902300	-0.60205100	-0.31591800	-0.40893600	-0.75097700	-0.05542000	-0.35034200
4112	41.11000000	-0.93969700	-0.05078100	0.15893600	-0.65747100	0.06567400	-0.69360400	-0.61914100	-0.67236300	-0.10449200	-0.69604500	-0.46875000	0.07226600	-0.64965800	0.47168000	0.15820300	-0.81225600	-0.02197300	0.25561500	-0.61035200	-0.32202100	-0.42138700	-0.73266600	-0.07055700	-0.38183600
4113	41.12000000	-0.93750000	-0.05078100	0.15673800	-0.65087900	0.06787100	-0.69824200	-0.61914100	-0.67236300	-0.10668900	-0.69165000	-0.47290000	0.06567400	-0.67529300	0.42968800	0.15380900	-0.80786100	-0.01977500	0.25341800	-0.60595700	-0.32812500	-0.41918900	-0.70507800	-0.08789100	-0.41088900
4114	41.13000000	-0.93335000	-0.05078100	0.16357400	-0.65527300	0.06567400	-0.68652300	-0.61499000	-0.67651400	-0.11108400	-0.69140600	-0.47705100	0.07275400	-0.69897500	0.39672900	0.14453100	-0.80615200	-0.01098600	0.25781200	-0.60546900	-0.34448200	-0.42724600	-0.68627900	-0.10937500	-0.44458000
4115	41.14000000	-0.93994100	-0.04882800	0.15893600	-0.65112300	0.07006800	-0.69140600	-0.60839800	-0.68286100	-0.11084000	-0.68505900	-0.48315400	0.07080100	-0.71801800	0.36377000	0.13964800	-0.80615200	-0.01098600	0.26464800	-0.61181600	-0.34668000	-0.42944300	-0.66577100	-0.12231400	-0.47583000
4116	41.15000000	-0.93750000	-0.05297900	0.15478500	-0.64672900	0.06787100	-0.69140600	-0.60205100	-0.68701200	-0.11084000	-0.67871100	-0.48730500	0.06640600	-0.72876000	0.34619100	0.13623000	-0.80664100	0.00415000	0.25756800	-0.61377000	-0.35058600	-0.43774400	-0.64257800	-0.14184600	-0.49365200
4117	41.16000000	-0.93725600	-0.05932600	0.15722700	-0.65551800	0.07421900	-0.68920900	-0.59985400	-0.68896500	-0.11523400	-0.68066400	-0.48925800	0.06176800	-0.74121100	0.31543000	0.12890600	-0.80664100	0.00854500	0.25097700	-0.61962900	-0.36303700	-0.43945300	-0.62402300	-0.15698200	-0.51391600
4118	41.17000000	-0.93969700	-0.05517600	0.16357400	-0.65551800	0.07617200	-0.68945300	-0.59326200	-0.69531200	-0.11718800	-0.67627000	-0.49560500	0.06420900	-0.74731400	0.29565400	0.12109400	-0.80737300	0.02587900	0.24609400	-0.62158200	-0.37109400	-0.44775400	-0.60400400	-0.15893600	-0.54077100
4119	41.18000000	-0.94189500	-0.05297900	0.15698200	-0.65356400	0.07836900	-0.68237300	-0.59106400	-0.70166000	-0.12133800	-0.67407200	-0.49975600	0.06909200	-0.75366200	0.27807600	0.11084000	-0.81176800	0.02783200	0.25073200	-0.62329100	-0.38549800	-0.44751000	-0.59497100	-0.16088900	-0.54736300
4120	41.19000000	-0.93945300	-0.05712900	0.16137700	-0.66210900	0.08252000	-0.68505900	-0.58447300	-0.70581100	-0.12353500	-0.66552700	-0.50585900	0.06250000	-0.75976600	0.25830100	0.10742200	-0.80761700	0.03442400	0.23925800	-0.63354500	-0.38964800	-0.45166000	-0.57959000	-0.15185500	-0.56103500
4121	41.20000000	-0.93505900	-0.06127900	0.15502900	-0.65576200	0.08252000	-0.67797900	-0.57397500	-0.70776400	-0.12548800	-0.66748000	-0.51196300	0.06274400	-0.76367200	0.24072300	0.10400400	-0.80981400	0.03442400	0.24829100	-0.64379900	-0.39599600	-0.45166000	-0.57690400	-0.16284200	-0.56323200
4122	41.21000000	-0.93725600	-0.05932600	0.15722700	-0.66235400	0.08447300	-0.68042000	-0.57397500	-0.70996100	-0.13012700	-0.66308600	-0.51611300	0.05835000	-0.76806600	0.23852500	0.10180700	-0.80761700	0.03222700	0.25073200	-0.64550800	-0.40820300	-0.44726600	-0.57006800	-0.16503900	-0.57666000
4123	41.22000000	-0.93750000	-0.05712900	0.15478500	-0.66235400	0.08447300	-0.67578100	-0.56323200	-0.71826200	-0.13427700	-0.66088900	-0.51806600	0.05835000	-0.77026400	0.23413100	0.11108400	-0.80712900	0.02368200	0.25756800	-0.65380900	-0.41040000	-0.44946300	-0.57226600	-0.16503900	-0.57446300
4124	41.23000000	-0.93310500	-0.05932600	0.15722700	-0.65795900	0.08667000	-0.68042000	-0.55712900	-0.71606400	-0.14306600	-0.65454100	-0.52026400	0.06298800	-0.76782200	0.23413100	0.11108400	-0.80053700	0.02148400	0.25756800	-0.65771500	-0.42065400	-0.45336900	-0.56811500	-0.16064500	-0.57226600
4125	41.24000000	-0.93725600	-0.06127900	0.15063500	-0.66040000	0.09082000	-0.67602500	-0.54589800	-0.73266600	-0.14477500	-0.65673800	-0.52026400	0.05615200	-0.77002000	0.23193400	0.11328100	-0.80249000	0.01074200	0.26660200	-0.66796900	-0.42895500	-0.44506800	-0.57006800	-0.16503900	-0.55639600
4126	41.25000000	-0.93945300	-0.05932600	0.14843800	-0.66259800	0.09301800	-0.67138700	-0.53955100	-0.73681600	-0.14477500	-0.65429700	-0.52856400	0.04956100	-0.77026400	0.23632800	0.11547900	-0.80004900	0.00634800	0.26879900	-0.67627000	-0.43115200	-0.43872100	-0.58374000	-0.16088900	-0.55639600
